<svg xmlns="http://www.w3.org/2000/svg" id="uuid-f17f99f0-36cb-44c2-9387-d2e2ac4c9f30" viewBox="0 0 191.29 31.99"><defs><style>.uuid-f9935b77-b6a0-4cd8-b30e-56b85cb3400b{fill:#000;stroke-width:0px;}</style></defs><g id="uuid-1674100e-259a-4f2f-9c32-792225dd7e9b"><polygon class="uuid-f9935b77-b6a0-4cd8-b30e-56b85cb3400b" points="16.49 24.31 22.27 16 16.46 7.67 10.68 16 16.49 24.31"></polygon><polygon class="uuid-f9935b77-b6a0-4cd8-b30e-56b85cb3400b" points="7.13 15.89 14.65 5.06 11.12 0 0 16 11.15 31.99 14.76 26.8 7.13 15.89"></polygon><path class="uuid-f9935b77-b6a0-4cd8-b30e-56b85cb3400b" d="M59.61,23.73c-.18-.29-.23-.69-.22-1.25h-.02c-.56,1.17-2.07,1.68-3.28,1.68-3.06,0-5.22-2.55-5.22-5.51s2.12-5.48,5.18-5.48c1.19,0,2.44.44,3.21,1.35v-.91h3.67v7.29s0,0,.01,0v.34c0,1.1.1,1.9.65,2.49h-3.97ZM57.29,15.88c-1.14,0-1.94.9-1.94,2.77s.8,2.77,1.94,2.77,1.96-.9,1.96-2.77-.82-2.77-1.96-2.77Z"></path><path class="uuid-f9935b77-b6a0-4cd8-b30e-56b85cb3400b" d="M37.42,17.31c1.46,0,2.04.39,2.04,1.68,0,1.16-.6,1.68-2.95,1.68h-2.62v-3.36h3.53ZM36.77,11.41c1.61,0,2.02.56,2.02,1.42,0,.95-.41,1.51-2.02,1.51h-2.88v-2.93h2.88ZM29.5,23.72h8.05c5.23,0,6.31-2.45,6.31-4.39,0-2.22-1.34-3.51-3.47-3.79v-.04c1.96-.52,2.8-1.48,2.8-3.49,0-2.28-1.83-3.66-5.57-3.66h-8.11v15.36Z"></path><path class="uuid-f9935b77-b6a0-4cd8-b30e-56b85cb3400b" d="M45.34,23.72v-15.36h4.13v15.36h-4.13Z"></path><path class="uuid-f9935b77-b6a0-4cd8-b30e-56b85cb3400b" d="M72.01,17.18c-.09-.45-.24-.82-.47-1.08-.26-.26-.6-.39-1.08-.39-1.08,0-1.76.97-1.76,2.8,0,2.62.9,3.1,1.81,3.1,1.25,0,1.55-.71,1.64-1.59h4.13c-.11,1.55-.84,2.58-1.91,3.23-1.07.64-2.5.9-3.94.9-3.4,0-6.07-1.98-6.07-5.55,0-2.54,2.07-5.42,6.16-5.42,2.88,0,5.33,1.46,5.76,4.01h-4.26Z"></path><path class="uuid-f9935b77-b6a0-4cd8-b30e-56b85cb3400b" d="M77.74,23.72v-15.36h4.13v8.22l2.67-2.97h4.95l-3.46,3.53,3.83,6.58h-4.65l-2.07-3.96-1.29,1.25v2.71h-4.11Z"></path><path class="uuid-f9935b77-b6a0-4cd8-b30e-56b85cb3400b" d="M126.85,23.71c-.18-.29-.23-.69-.22-1.26h-.02c-.57,1.17-2.07,1.68-3.28,1.68-3.06,0-5.22-2.55-5.22-5.5s2.12-5.48,5.18-5.48c1.19,0,2.44.44,3.21,1.35v-.91h3.67v7.29s0,0,.01,0v.33c0,1.1.1,1.9.65,2.49h-3.97ZM124.54,15.86c-1.14,0-1.94.9-1.94,2.77s.79,2.76,1.94,2.76,1.96-.89,1.96-2.76-.82-2.77-1.96-2.77Z"></path><path class="uuid-f9935b77-b6a0-4cd8-b30e-56b85cb3400b" d="M156.1,18.67c0-2.09.73-3.12,2.05-3.12s2.05,1.03,2.05,3.12-.73,3.12-2.05,3.12-2.05-1.03-2.05-3.12ZM164.56,18.67c0-3.08-2.12-5.49-6.41-5.49s-6.4,2.41-6.4,5.49,2.11,5.49,6.4,5.49,6.41-2.41,6.41-5.49Z"></path><path class="uuid-f9935b77-b6a0-4cd8-b30e-56b85cb3400b" d="M99.83,11.5h2.47c2.21,0,4.18.99,4.18,4.54,0,2.82-1.25,4.54-4.18,4.54h-2.47v-9.08ZM95.44,23.72h6.6c5.92,0,9.08-2.37,9.08-7.68s-3.16-7.68-9.08-7.68h-6.6v15.36Z"></path><rect class="uuid-f9935b77-b6a0-4cd8-b30e-56b85cb3400b" x="112.54" y="13.83" width="4.13" height="9.88"></rect><rect class="uuid-f9935b77-b6a0-4cd8-b30e-56b85cb3400b" x="112.54" y="8.42" width="4.13" height="3.71"></rect><path class="uuid-f9935b77-b6a0-4cd8-b30e-56b85cb3400b" d="M132.52,23.72v-10.11h3.96v1.46h.04c.71-1.46,2.22-1.89,3.25-1.89,1.42,0,2.45.6,3.08,1.81.62-1.25,2-1.81,3.21-1.81,2.19,0,4.15.87,4.15,4.35v6.2h-4.13v-6.2c0-1.07-.65-1.38-1.31-1.38s-1.34.3-1.34,1.38v6.2h-4.13v-6.2c0-1.07-.64-1.38-1.31-1.38s-1.33.3-1.33,1.38v6.2h-4.13Z"></path><path class="uuid-f9935b77-b6a0-4cd8-b30e-56b85cb3400b" d="M166.08,23.72v-10.11h4.07v1.72h.04c.6-1.68,2.08-2.15,3.57-2.15,1.7,0,3.57,1.16,3.66,3.62v6.93h-4.13v-6.04c0-1.06-.45-1.53-1.4-1.53s-1.68.86-1.68,1.81v5.77h-4.13Z"></path><path class="uuid-f9935b77-b6a0-4cd8-b30e-56b85cb3400b" d="M187.16,8.36h4.13v15.36h-3.85v-1.2h-.04c-.65,1.05-1.96,1.63-3.48,1.63-2.35,0-4.97-2.02-4.97-5.36,0-2.39,1.1-5.55,4.86-5.62,1.22,0,2.45.26,3.35,1.19v-6ZM185.13,15.89c-1.12,0-1.91.9-1.91,2.78s.8,2.77,1.91,2.77,1.96-.9,1.96-2.77-.82-2.78-1.96-2.78Z"></path><path class="uuid-f9935b77-b6a0-4cd8-b30e-56b85cb3400b" d="M183.04,10.58c-1.03,0-1.92-.86-1.92-1.94s.9-1.94,1.92-1.94,1.92.86,1.92,1.94-.9,1.94-1.92,1.94ZM183.04,6.91c-.96,0-1.68.78-1.68,1.73s.72,1.74,1.68,1.74,1.67-.79,1.67-1.74-.72-1.73-1.67-1.73ZM183.58,9.74l-.69-.94h-.34v.94h-.23v-2.18h.66c.55,0,.81.2.81.59,0,.34-.3.62-.62.64l.71.96h-.31ZM182.93,7.76h-.38v.85h.43c.38,0,.58-.15.58-.46,0-.33-.33-.39-.62-.39Z"></path></g></svg>