<?xml version="1.0" encoding="utf-8"?>
<!-- Generator: Adobe Illustrator 21.0.0, SVG Export Plug-In . SVG Version: 6.00 Build 0)  -->
<svg version="1.1" id="图层_1" xmlns="http://www.w3.org/2000/svg" xmlns:xlink="http://www.w3.org/1999/xlink" x="0px" y="0px"
	 viewBox="0 0 841.9 75.4" style="enable-background:new 0 0 841.9 75.4;" xml:space="preserve">
<g>
	<path d="M67.1,42.2L31,1.2H2.2v71.9H26V29.4l38.6,43.7H91V1.2H67.1V42.2z M109.5,73.1H133V1.2h-23.5V73.1z M258.5,73.1h89.1V54.8
		H282v-8.5h65.5V28.1H282v-8.5h65.5V1.2h-89.1v71.9H258.5z M779.5,19.5V1.2h-89.1v71.9h89.1V54.8H714v-8.5h65.6V28.1H714v-8.5h65.5
		V19.5z M554.9,1.2H483c-4.6,0-8.4,3.8-8.4,8.4v55.1c0,4.6,3.8,8.4,8.4,8.4h71.9c4.6,0,8.4-3.8,8.4-8.4V9.6
		C563.3,5,559.6,1.2,554.9,1.2z M540,55.6h-42V18.8h42V55.6z M662.9,1.2L662.9,1.2h-80.4V73H606V48.5h20.2l15.5,24.6h29.2
		l-15.4-24.6c0.3,0,0.5,0,0.7,0h6.7c4.6,0,8.4-3.8,8.4-8.4V9.6C671.2,5.1,667.5,1.3,662.9,1.2z M647.7,30.3H606V19.5h41.7V30.3z
		 M366.4,10v55c0,4.6,3.8,8.4,8.4,8.4h80.6V55.1h-65.5V19.8h65.5V1.6h-80.6C370.2,1.6,366.4,5.4,366.4,10z M150.3,19.5h33.1v53.6
		h23.5V19.5H240V1.2h-89.7V19.5z"/>
	<g>
		<path d="M823.1,4.7c9.8,0,17.4,8,17.4,17.6c0,9.7-7.8,17.5-17.5,17.5s-17.6-7.8-17.6-17.5C805.4,12.8,813,4.7,823.1,4.7L823.1,4.7
			z M822.9,7.7c-8.2,0-14.4,6.7-14.4,14.6c0,8.1,6.5,14.6,14.4,14.6s14.3-6.4,14.3-14.6C837.3,14.4,831.2,7.7,822.9,7.7L822.9,7.7z
			 M823.8,12.3c3.1,0,7.1,1.2,7.1,5.5c0,1.8-0.7,3.7-3.3,4.8c1.8,0.6,2.8,1.8,3,4.5c0.2,3.6,0.2,4,0.6,4.9h-3.9
			c-0.4-0.7-0.5-3.2-0.6-4.7c-0.1-1.5-0.4-3.3-4.1-3.3h-3.1v8h-4V12.3H823.8z M819.4,15.1v6.3h3.3c1.2-0.1,4.2,0,4.2-3.4
			c0-2.9-2.7-2.9-3.8-2.9C823.1,15.1,819.4,15.1,819.4,15.1z"/>
	</g>
</g>
</svg>
