<svg xmlns="http://www.w3.org/2000/svg" viewBox="0 0 1280 990">
<g transform="translate(0,990) scale(0.1,-0.1)" fill="#000000" fill-rule="evenodd" stroke="none">
<path d="M6724 9808 c-11 -17 25 -38 65 -38 56 0 109 -19 144 -50 l32 -29 -2
-158 c-1 -87 -17 -392 -37 -678 -55 -785 -69 -902 -116 -949 -16 -16 -37 -22
-98 -26 -61 -4 -77 -8 -80 -22 -5 -24 15 -27 229 -38 107 -5 266 -16 354 -25
200 -19 214 -19 222 0 8 23 1 26 -89 41 -93 15 -127 35 -145 85 -19 54 -14
274 13 614 l6 80 69 -5 c42 -3 74 -11 83 -20 8 -8 74 -112 146 -230 181 -294
263 -412 340 -489 109 -109 172 -131 434 -151 121 -9 142 -9 155 4 20 21 14
25 -66 43 -64 15 -72 19 -142 91 -105 108 -188 223 -364 507 -86 138 -162 259
-170 270 -14 18 -12 21 40 50 163 91 284 251 333 441 23 89 27 209 10 276 -33
121 -131 237 -248 290 -109 49 -208 67 -478 83 -137 8 -319 22 -404 30 -187
18 -227 19 -236 3z m757 -174 c202 -59 325 -264 305 -506 -16 -196 -122 -342
-276 -382 -66 -16 -280 -11 -280 8 0 22 50 743 56 804 3 34 12 69 21 77 19 20
104 19 174 -1z"/>
<path d="M5415 9774 c-60 -7 -225 -20 -365 -29 -140 -8 -263 -18 -273 -21 -10
-3 -17 -13 -15 -22 3 -14 18 -17 86 -19 127 -2 161 -23 181 -115 20 -90 112
-1301 114 -1503 3 -231 -3 -243 -124 -268 -43 -9 -64 -18 -64 -27 0 -22 56
-23 229 -6 83 9 243 21 356 27 209 12 255 19 248 42 -3 8 -39 14 -111 17 -98
5 -109 7 -133 31 -16 17 -31 48 -40 85 -13 57 -46 362 -60 550 l-6 91 108 8
c60 4 142 16 182 26 239 61 418 245 482 494 27 107 27 260 0 340 -55 160 -175
264 -348 301 -83 17 -296 16 -447 -2z m207 -124 c176 -54 291 -214 313 -435
18 -184 -67 -356 -208 -420 -47 -22 -190 -45 -274 -45 l-29 0 -33 441 c-24
314 -30 444 -23 451 30 30 168 35 254 8z"/>
<path d="M3744 9665 c-195 -30 -335 -93 -440 -199 -128 -129 -170 -271 -129
-445 24 -102 79 -196 165 -282 93 -93 176 -148 391 -259 201 -105 285 -163
340 -235 46 -62 79 -154 79 -224 0 -156 -131 -283 -321 -313 -204 -31 -367 76
-430 284 -21 69 -39 87 -60 62 -9 -12 -6 -52 16 -197 15 -100 33 -200 39 -222
19 -64 41 -70 241 -69 150 1 182 4 267 27 144 38 247 95 338 186 120 120 167
243 157 406 -14 218 -116 383 -327 524 -47 31 -175 103 -286 159 -226 116
-302 171 -348 252 -28 49 -31 64 -31 136 0 72 3 86 30 130 57 92 175 147 315
148 66 1 85 -4 142 -32 82 -40 140 -103 169 -183 22 -59 43 -75 56 -42 4 9 1
48 -6 87 -7 39 -21 122 -31 185 -10 69 -23 117 -31 122 -20 13 -210 9 -305 -6z"/>
<path d="M9132 9563 c2 -12 23 -23 66 -35 111 -30 152 -68 152 -143 0 -44 -29
-192 -146 -750 -165 -785 -192 -890 -244 -945 l-30 -32 -80 7 c-76 7 -80 6
-80 -14 0 -21 26 -31 115 -45 116 -19 323 -63 505 -107 311 -76 520 -120 553
-117 18 2 38 13 49 29 24 31 96 244 105 305 5 41 4 46 -12 43 -11 -3 -32 -30
-50 -66 -40 -78 -50 -90 -96 -114 -50 -25 -151 -25 -277 1 -238 48 -305 102
-288 228 12 87 138 677 147 686 9 10 87 -4 279 -51 190 -46 225 -79 215 -199
-4 -57 -3 -73 9 -77 21 -8 31 9 56 103 12 47 38 134 57 194 39 123 36 142 -20
107 -24 -14 -51 -21 -87 -21 -73 0 -471 80 -477 96 -5 13 130 671 140 680 6 6
301 -62 380 -88 67 -22 119 -53 138 -83 8 -12 14 -50 14 -99 0 -79 10 -101 33
-74 5 7 24 60 41 118 16 58 39 132 51 164 11 33 20 65 20 71 0 8 -30 15 -87
19 -90 8 -612 113 -918 186 -191 45 -238 50 -233 23z"/>
<path d="M10882 9176 c2 -7 23 -29 47 -47 56 -43 96 -114 121 -215 33 -135
116 -951 105 -1046 -10 -98 -32 -155 -160 -414 -164 -333 -186 -353 -321 -303
-43 16 -59 18 -67 9 -18 -18 15 -39 150 -100 65 -29 220 -104 345 -167 125
-62 234 -113 242 -113 26 0 30 23 8 39 -11 9 -49 32 -83 51 -77 43 -102 79
-95 137 6 50 69 194 193 447 108 219 141 258 328 388 154 106 493 325 599 386
152 87 257 110 351 77 52 -19 75 -19 75 1 0 10 -33 30 -92 57 -51 23 -173 81
-271 129 -98 48 -182 88 -187 88 -17 0 -11 -38 8 -52 35 -24 44 -54 29 -90
-21 -48 -91 -109 -287 -248 -96 -68 -238 -168 -315 -223 -77 -55 -145 -101
-151 -104 -11 -4 -64 702 -67 884 -1 78 2 96 18 113 16 18 27 21 61 15 43 -6
58 2 45 23 -4 6 -74 43 -157 80 -82 38 -213 101 -291 141 -141 70 -188 85
-181 57z"/>
<path d="M1669 9069 c-212 -22 -484 -129 -659 -260 -298 -222 -440 -531 -409
-893 31 -371 260 -712 584 -871 137 -67 216 -86 380 -92 118 -4 157 -1 244 17
236 48 464 166 623 322 338 332 402 812 168 1267 -152 296 -404 476 -712 510
-106 12 -109 12 -219 0z m61 -224 c134 -41 293 -145 391 -254 206 -230 350
-601 336 -871 -8 -167 -56 -277 -166 -383 -139 -135 -365 -206 -565 -178 -384
54 -710 407 -827 897 -25 104 -29 261 -10 344 18 73 61 164 106 221 77 99 248
203 385 234 84 19 273 13 350 -10z"/>
<path d="M12512 6456 c-658 -1105 -1816 -1996 -3391 -2608 -409 -159 -890
-311 -1326 -419 -213 -53 -651 -144 -749 -155 l-59 -7 7 69 c10 97 47 309 117
679 47 246 66 328 84 355 44 68 157 190 180 196 16 4 45 -4 86 -25 34 -17 64
-29 66 -27 2 2 -23 37 -55 77 -84 106 -186 180 -287 208 l-39 11 -81 -82 -80
-81 -375 -89 c-206 -49 -378 -93 -382 -96 -4 -4 -122 -263 -262 -577 -197
-440 -259 -571 -274 -573 -10 -2 -87 11 -171 27 -1471 294 -2783 847 -3867
1632 -349 252 -619 483 -919 783 -258 258 -473 511 -637 746 -10 15 -1 -24 23
-95 75 -221 231 -497 416 -733 99 -127 281 -330 347 -387 l48 -43 -173 -41
c-96 -22 -228 -54 -294 -69 l-120 -29 55 -12 c87 -18 255 -30 530 -37 l255 -7
140 -95 c77 -52 142 -97 145 -99 13 -11 -71 -62 -260 -156 -113 -57 -241 -119
-285 -139 -103 -47 -85 -56 76 -40 145 15 280 40 523 99 180 43 191 45 215 29
14 -9 102 -57 194 -107 101 -55 165 -95 159 -101 -16 -16 -241 -135 -587 -311
-218 -110 -332 -173 -318 -175 41 -6 436 88 1004 240 l236 64 147 -81 147 -80
-27 -20 c-402 -295 -1014 -779 -1001 -792 21 -21 553 250 1257 640 l35 20 160
-68 c88 -37 164 -70 168 -74 10 -10 -49 -90 -204 -276 -121 -145 -441 -517
-602 -700 -43 -49 -75 -91 -69 -93 17 -5 97 35 182 93 178 121 464 367 816
702 l162 153 127 -55 c71 -30 130 -57 132 -59 3 -2 -120 -318 -272 -701 -152
-383 -275 -699 -272 -701 11 -11 126 109 207 217 154 205 409 611 595 947 37
67 71 124 75 127 8 5 226 -68 236 -78 2 -2 -34 -197 -80 -433 -175 -886 -217
-1106 -213 -1111 10 -10 59 69 111 178 95 200 237 581 391 1049 37 113 70 208
74 212 4 4 76 -12 161 -35 138 -39 156 -46 162 -68 4 -13 28 -312 53 -664 25
-352 48 -664 52 -694 5 -52 6 -53 19 -29 38 73 117 632 165 1171 l12 139 36
-7 c20 -4 39 -10 43 -13 10 -10 869 -1834 866 -1838 -10 -9 -393 -211 -542
-286 l-179 -89 -59 113 c-33 62 -105 203 -160 313 l-100 199 -84 -86 c-46 -48
-104 -119 -130 -158 -44 -69 -100 -188 -91 -196 4 -4 152 97 244 166 18 13 34
22 37 19 6 -7 76 -172 76 -181 0 -4 -38 -8 -85 -8 l-85 0 -27 -42 c-81 -128
-182 -357 -171 -390 2 -6 53 53 112 133 60 79 112 148 116 152 3 4 65 -2 137
-14 l131 -22 127 -294 c71 -161 126 -295 124 -297 -2 -2 -83 -29 -179 -61
-170 -57 -174 -59 -145 -71 47 -20 259 -17 420 7 77 11 141 21 142 23 2 1 -55
116 -126 255 l-128 252 26 13 c49 24 642 258 645 255 2 -2 -50 -152 -116 -334
-65 -181 -121 -340 -124 -352 -7 -26 21 -36 166 -58 167 -26 326 -16 514 31
89 22 239 77 259 94 4 4 -10 33 -32 66 -44 67 -143 252 -248 466 -60 123 -68
145 -50 138 12 -6 166 -66 341 -135 176 -69 322 -127 324 -130 3 -3 -18 -54
-47 -114 -104 -220 -188 -439 -178 -465 14 -36 515 -72 547 -40 8 8 -3 23 -37
55 -46 43 -52 45 -171 68 -81 16 -122 28 -120 35 2 7 44 122 93 255 l90 244
105 49 c58 28 119 56 137 64 l32 14 83 -145 c95 -164 103 -163 68 13 -24 127
-74 330 -83 338 -3 4 -58 -22 -123 -56 -64 -34 -115 -58 -113 -53 20 52 125
263 131 263 4 0 75 -39 158 -87 83 -47 153 -83 157 -79 20 20 -123 229 -234
342 -39 41 -76 74 -81 74 -12 0 -59 -85 -214 -388 -61 -119 -112 -219 -114
-220 -5 -7 -754 383 -754 392 0 5 124 365 276 800 152 435 287 823 301 862
l24 70 52 14 c29 7 58 15 64 17 21 8 70 -146 179 -572 91 -355 215 -749 225
-714 21 73 -13 825 -57 1302 -4 37 -4 67 -1 67 3 0 82 20 175 45 93 25 176 45
184 45 9 0 20 -17 27 -42 33 -110 240 -677 288 -787 67 -156 146 -297 222
-398 57 -76 111 -134 111 -119 0 5 -81 325 -181 713 -99 388 -178 710 -177
715 6 16 259 111 269 101 4 -4 108 -159 231 -343 282 -423 570 -841 576 -836
2 3 -2 31 -8 63 -35 172 -222 568 -487 1031 -58 101 -103 185 -101 186 18 15
321 127 330 123 7 -3 63 -44 123 -91 196 -153 972 -712 1037 -747 18 -10 18
-8 -1 29 -59 115 -347 462 -698 839 l-123 131 125 66 c69 36 129 66 133 66 5
0 287 -118 628 -261 340 -144 628 -264 639 -267 18 -4 17 -2 -5 22 -65 71
-424 320 -807 561 -95 59 -173 111 -173 115 0 5 92 56 204 114 l205 105 168
-50 c477 -142 901 -257 1013 -273 51 -8 93 -33 -425 249 -154 84 -320 176
-368 204 l-88 52 118 81 c65 44 136 93 158 109 l40 28 167 -40 c91 -21 233
-50 315 -64 161 -28 373 -44 373 -29 0 6 -60 36 -132 69 -145 64 -433 206
-460 227 -15 12 0 26 142 126 166 118 183 126 290 137 102 11 325 43 443 66
104 19 243 57 235 64 -1 1 -131 18 -288 35 -157 18 -287 34 -289 36 -2 1 35
51 82 111 214 274 410 610 525 903 41 105 93 260 88 260 -2 0 -44 -69 -94
-154z m-5310 -1823 c22 -20 23 -70 1 -95 -25 -28 -77 -24 -102 8 -12 15 -21
32 -21 39 0 7 9 24 21 39 24 31 72 35 101 9z m-157 -175 c-3 -13 -54 -286
-114 -606 -61 -321 -112 -586 -115 -590 -3 -3 -51 -7 -106 -10 -77 -4 -100 -2
-100 8 0 15 249 1182 253 1186 3 4 149 32 170 33 13 1 16 -4 12 -21z m-586
-125 c-4 -21 -60 -270 -123 -553 -64 -283 -116 -518 -116 -523 0 -10 -268 1
-286 12 -8 4 53 182 183 536 108 292 196 531 198 532 2 3 124 30 141 32 9 1 9
-10 3 -36z m189 -210 c32 -20 62 -72 62 -108 0 -70 -76 -140 -143 -131 -75 9
-121 59 -119 132 1 104 111 164 200 107z m-868 -1137 c343 -63 839 -72 1178
-22 50 7 82 8 82 2 0 -9 -558 -1607 -563 -1612 -2 -2 -188 371 -415 827 -343
693 -408 830 -389 826 12 -3 60 -13 107 -21z m889 -2305 c89 -151 161 -275
161 -277 0 -6 -138 -43 -204 -55 -64 -11 -350 -9 -361 3 -3 2 50 140 117 306
67 166 123 300 124 299 1 -1 75 -125 163 -276z"/>
<path d="M8507 700 c-94 -24 -175 -90 -218 -176 -33 -67 -34 -177 -1 -249 29
-63 83 -119 147 -153 44 -24 61 -27 145 -27 84 0 101 3 146 27 147 77 211 254
143 398 -37 79 -72 115 -142 150 -69 33 -157 45 -220 30z m173 -77 c102 -42
163 -165 140 -280 -15 -71 -61 -130 -130 -166 -48 -25 -63 -28 -120 -24 -74 5
-113 22 -160 69 -131 130 -70 366 107 414 52 14 108 10 163 -13z"/>
<path d="M8463 563 c-10 -3 -13 -48 -13 -174 l0 -169 40 0 40 0 0 70 0 70 30
0 c36 0 70 -31 70 -64 0 -14 4 -36 10 -50 8 -21 16 -26 45 -26 19 0 35 1 35 3
-1 43 -24 125 -40 142 l-21 22 30 31 c35 34 37 48 17 97 -11 26 -23 36 -53 44
-38 11 -167 14 -190 4z m164 -69 c30 -41 1 -74 -63 -74 l-44 0 0 43 c0 24 3
47 8 51 12 13 86 -2 99 -20z"/>
</g>
</svg>