<svg xmlns="http://www.w3.org/2000/svg" id="uuid-1b7ea38d-3127-457f-a364-b5e1c3c5718d" viewBox="0 0 174.88 163.85"><defs><style>.uuid-14a2da09-2700-4c1b-a33b-cf1afed3a235{fill:#000;stroke-width:0px;}</style></defs><g id="uuid-f3ae3291-eec5-4888-89b9-697667d2b83b"><path class="uuid-14a2da09-2700-4c1b-a33b-cf1afed3a235" d="M25.11,149.46c0-2.41-.83-4.37-2.48-5.81-1.65-1.45-3.78-2.19-6.33-2.19H7.35v21.98l5.74.03v-16.93h3.25c.88,0,1.6.27,2.13.8.53.53.8,1.24.8,2.12s-.27,1.6-.8,2.14c-.53.54-1.25.82-2.13.82h-3.25l7.44,11.03h6.36l-5.36-7.36c2.38-1.47,3.58-3.7,3.58-6.63Z"></path><path class="uuid-14a2da09-2700-4c1b-a33b-cf1afed3a235" d="M126.74,149.36c0-2.41-.83-4.37-2.48-5.81-1.65-1.45-3.78-2.19-6.33-2.19h-8.95v21.98l5.74.03v-16.93h3.25c.88,0,1.6.27,2.13.8.53.53.8,1.24.8,2.12s-.27,1.6-.8,2.14c-.53.54-1.25.82-2.13.82h-3.25l7.44,11.03h6.36l-5.36-7.36c2.38-1.47,3.58-3.7,3.58-6.63Z"></path><polygon class="uuid-14a2da09-2700-4c1b-a33b-cf1afed3a235" points="35.63 154.33 42.52 154.33 42.52 149.76 35.63 149.76 35.63 146.39 44.78 146.39 44.78 141.45 30.12 141.45 30.12 163.44 45.18 163.44 45.18 158.51 35.63 158.51 35.63 154.33"></polygon><polygon class="uuid-14a2da09-2700-4c1b-a33b-cf1afed3a235" points="74.35 154.52 81.23 154.52 81.23 149.96 74.35 149.96 74.35 146.59 83.49 146.59 83.49 141.65 68.83 141.65 68.83 163.64 83.9 163.64 83.9 158.7 74.35 158.7 74.35 154.52"></polygon><path class="uuid-14a2da09-2700-4c1b-a33b-cf1afed3a235" d="M59.39,150.46l-2.57-1.08c-.74-.3-1.25-.58-1.54-.86-.31-.29-.47-.66-.47-1.1,0-1.04.72-1.57,2.14-1.57.81,0,1.52.2,2.11.6.54.37,1.09.94,1.61,1.7l3.66-2.8c-1.48-2.85-3.99-4.3-7.45-4.3-2.25,0-4.11.6-5.53,1.77-1.41,1.17-2.13,2.74-2.13,4.66,0,2.76,1.87,4.98,5.55,6.58l2.3,1.01c.88.38,1.5.71,1.82.97.35.27.53.69.53,1.23,0,1.17-.82,1.77-2.44,1.77-1.89,0-3.57-.94-4.99-2.81l-3.7,2.81s0,0,0,0c.79,1.45,1.95,2.62,3.43,3.48,1.52.88,3.29,1.33,5.26,1.33,2.32,0,4.26-.62,5.77-1.84,1.5-1.21,2.26-2.89,2.26-4.97,0-1.53-.46-2.82-1.36-3.84-.92-1.02-2.35-1.95-4.25-2.75Z"></path><path class="uuid-14a2da09-2700-4c1b-a33b-cf1afed3a235" d="M93.79,141.22l-6.9,22.4h5.67l1.04-3.6,6.31.09.98,3.51h5.46l-7.08-22.4h-5.48ZM94.49,155.25l.05-.19,2.03-7.29,2.19,7.48h-4.27Z"></path><path class="uuid-14a2da09-2700-4c1b-a33b-cf1afed3a235" d="M141.65,146.09c2.43,0,4.4,1.21,5.85,3.58l4.19-2.84c-.99-1.8-2.36-3.23-4.07-4.23-1.75-1.03-3.75-1.55-5.94-1.55-3.32,0-6.17,1.11-8.46,3.29-2.29,2.18-3.45,4.91-3.45,8.12s1.15,5.96,3.43,8.13c2.28,2.17,5.12,3.27,8.44,3.27,2.21,0,4.22-.52,5.97-1.55,1.71-1.01,3.08-2.43,4.07-4.23l-4.19-2.84c-1.45,2.38-3.42,3.59-5.85,3.59-1.84,0-3.35-.58-4.5-1.73-1.15-1.15-1.73-2.69-1.73-4.6s.59-3.46,1.75-4.63c1.16-1.17,2.67-1.77,4.48-1.77Z"></path><polygon class="uuid-14a2da09-2700-4c1b-a33b-cf1afed3a235" points="169.17 149.5 160.74 149.5 160.74 141.36 155.22 141.36 155.22 163.35 160.74 163.35 160.74 154.44 169.17 154.44 169.17 163.35 174.69 163.35 174.69 141.36 169.17 141.36 169.17 149.5"></polygon><path class="uuid-14a2da09-2700-4c1b-a33b-cf1afed3a235" d="M139.86,112.39c-3.33,0-6.19,1.12-8.49,3.32-2.3,2.2-3.46,4.95-3.46,8.19s1.17,5.99,3.46,8.2c2.3,2.2,5.16,3.32,8.49,3.32s6.2-1.12,8.52-3.32c2.32-2.2,3.5-4.96,3.5-8.19s-1.18-6-3.5-8.19c-2.32-2.2-5.19-3.32-8.52-3.32ZM144.4,128.56c-1.18,1.17-2.7,1.76-4.5,1.76s-3.38-.59-4.54-1.77c-1.16-1.17-1.75-2.74-1.75-4.66s.59-3.46,1.75-4.64c1.16-1.18,2.69-1.78,4.54-1.78s3.32.6,4.5,1.78c1.18,1.18,1.78,2.75,1.78,4.64s-.6,3.49-1.78,4.66Z"></path><path class="uuid-14a2da09-2700-4c1b-a33b-cf1afed3a235" d="M16.6,112.39c-3.33,0-6.19,1.12-8.49,3.32-2.3,2.2-3.46,4.95-3.46,8.19s1.17,5.99,3.47,8.2c2.3,2.2,5.16,3.32,8.49,3.32s6.2-1.12,8.52-3.32c2.32-2.2,3.5-4.96,3.5-8.19s-1.18-6-3.5-8.19c-2.32-2.2-5.19-3.32-8.52-3.32ZM21.13,128.56c-1.18,1.17-2.7,1.76-4.5,1.76s-3.38-.59-4.54-1.77c-1.16-1.17-1.75-2.74-1.75-4.66s.59-3.46,1.75-4.64c1.16-1.18,2.69-1.78,4.54-1.78s3.32.6,4.5,1.78c1.18,1.18,1.78,2.75,1.78,4.64s-.6,3.49-1.78,4.66Z"></path><path class="uuid-14a2da09-2700-4c1b-a33b-cf1afed3a235" d="M104.44,115.71c-2.3,2.2-3.46,4.95-3.46,8.19s1.17,5.99,3.47,8.2c2.3,2.2,5.16,3.32,8.49,3.32s6.2-1.12,8.52-3.32c2.32-2.2,3.5-4.96,3.5-8.19s-1.18-6-3.5-8.19c-2.32-2.2-5.19-3.32-8.52-3.32s-6.19,1.12-8.49,3.32ZM117.46,119.26c1.18,1.18,1.78,2.75,1.78,4.64s-.6,3.49-1.78,4.66c-1.18,1.17-2.7,1.76-4.5,1.76s-3.38-.59-4.54-1.77c-1.16-1.17-1.75-2.74-1.75-4.66s.59-3.46,1.75-4.64c1.16-1.18,2.69-1.78,4.54-1.78s3.32.6,4.5,1.78Z"></path><path class="uuid-14a2da09-2700-4c1b-a33b-cf1afed3a235" d="M32.11,112.8v12.81c0,2.92.93,5.32,2.75,7.11,1.82,1.79,4.2,2.7,7.05,2.7s5.2-.91,7.04-2.7c1.83-1.79,2.76-4.18,2.76-7.1v-12.81h-5.56v13.25c0,1.31-.4,2.36-1.19,3.13-.79.76-1.82,1.15-3.05,1.15s-2.26-.39-3.05-1.15c-.79-.77-1.19-1.82-1.19-3.13v-13.25h-5.57Z"></path><polygon class="uuid-14a2da09-2700-4c1b-a33b-cf1afed3a235" points="74.49 112.8 55.43 112.8 55.43 117.79 62.18 117.79 62.18 135 67.74 135 67.74 117.79 74.49 117.79 74.49 112.8"></polygon><path class="uuid-14a2da09-2700-4c1b-a33b-cf1afed3a235" d="M98.01,123.83c0-3.32-1.15-6.02-3.43-8.02-2.28-2-5.21-3.01-8.7-3.01h-7.69v22.2h7.69c3.47,0,6.39-1.05,8.68-3.11,2.29-2.06,3.45-4.78,3.45-8.06ZM90.49,128.36c-1.2,1.1-2.76,1.66-4.63,1.66h-2.09v-12.2h2.09c1.89,0,3.45.52,4.65,1.54,1.2,1.02,1.81,2.53,1.81,4.48s-.61,3.42-1.82,4.53Z"></path><path class="uuid-14a2da09-2700-4c1b-a33b-cf1afed3a235" d="M160.95,123.88v-5.94h3.28c.89,0,1.62.27,2.15.81.54.54.81,1.26.81,2.14s-.27,1.62-.81,2.16c-.54.55-1.26.83-2.15.83h-3.28l7.51,11.13h6.42l-5.41-7.43c2.4-1.49,3.62-3.74,3.62-6.69,0-2.43-.84-4.41-2.5-5.87-1.67-1.47-3.82-2.21-6.39-2.21h-9.04v22.19l5.79.03v-11.14Z"></path><path class="uuid-14a2da09-2700-4c1b-a33b-cf1afed3a235" d="M46.98,93.95c18.94,0,35.26-11.22,42.69-27.37v37.55l25.43-.22V34.47h14.4c3.92,0,7.09,1.17,9.44,3.47,2.35,2.3,3.55,5.39,3.55,9.21s-1.19,6.93-3.55,9.29c-2.35,2.35-5.53,3.54-9.44,3.54h-14.4l32.89,44.01h26.7l-22.17-28.13c10.54-6.38,15.88-16.05,15.88-28.71,0-10.44-3.7-18.92-10.99-25.2-7.32-6.3-16.76-9.5-28.06-9.5h-39.68v14.92C82.23,11.22,65.92,0,46.98,0,21.03,0,0,21.03,0,46.98s21.03,46.98,46.98,46.98ZM46.98,24.13c12.62,0,22.84,10.23,22.84,22.84s-10.23,22.84-22.84,22.84-22.84-10.23-22.84-22.84,10.23-22.84,22.84-22.84Z"></path></g></svg>